<?xml version="1.0" standalone="no"?>
<!DOCTYPE svg PUBLIC "-//W3C//DTD SVG 20010904//EN"
 "http://www.w3.org/TR/2001/REC-SVG-20010904/DTD/svg10.dtd">
<svg version="1.0" xmlns="http://www.w3.org/2000/svg"
 width="512.000000pt" height="512.000000pt" viewBox="0 0 512.000000 512.000000"
 preserveAspectRatio="xMidYMid meet">

<g transform="translate(0.000000,512.000000) scale(0.100000,-0.100000)"
fill="#000000" stroke="none">
<path d="M2340 4771 c-90 -29 -174 -103 -212 -186 -18 -40 -23 -67 -23 -140 0
-79 4 -96 28 -143 54 -103 134 -162 248 -183 120 -22 245 30 322 134 124 167
65 400 -125 498 -33 17 -64 23 -128 26 -47 1 -96 -1 -110 -6z m180 -183 c77
-53 99 -132 61 -212 -40 -81 -131 -115 -213 -78 -61 27 -91 71 -95 141 -7 103
58 171 163 171 36 0 60 -6 84 -22z"/>
<path d="M1109 4436 c-67 -24 -103 -54 -285 -238 -153 -155 -183 -191 -197
-232 -27 -80 -22 -144 16 -217 72 -139 236 -185 372 -104 22 13 94 78 160 144
l120 121 92 0 93 0 -146 -219 -146 -220 -207 -105 -206 -104 -199 124 c-109
68 -215 128 -235 134 -90 25 -188 0 -253 -63 -64 -62 -83 -107 -83 -197 0 -85
20 -133 77 -186 47 -44 544 -354 597 -372 89 -30 130 -18 423 129 l268 134
170 -85 c157 -78 172 -88 200 -132 17 -26 44 -57 61 -69 22 -15 61 -83 149
-260 66 -131 120 -242 120 -247 0 -4 -46 -30 -102 -58 l-103 -51 -245 154
c-348 219 -325 208 -445 208 -89 0 -106 -3 -150 -27 -62 -32 -129 -103 -158
-166 -33 -71 -31 -198 4 -273 15 -31 42 -72 62 -91 39 -39 701 -457 785 -496
62 -28 163 -34 227 -12 22 7 197 91 390 188 l350 174 296 -147 296 -148 187
-376 c103 -207 199 -392 212 -412 32 -47 100 -95 166 -119 53 -18 45 -19 -820
-19 l-873 -1 -24 -25 c-31 -30 -32 -73 -4 -109 l20 -26 1420 0 c907 0 1427 4
1439 10 22 12 42 64 33 88 -3 9 -15 27 -26 40 l-20 22 -496 1 -496 1 58 20
c76 26 166 108 198 180 19 42 24 70 24 140 l0 87 -233 466 c-187 376 -241 476
-279 516 -25 27 -44 49 -42 49 2 0 26 -7 53 -15 27 -8 65 -15 84 -15 59 0 943
180 988 201 69 33 121 85 156 157 61 123 41 270 -51 375 -18 20 -61 51 -96 68
-104 51 -136 50 -490 -21 -170 -33 -317 -63 -325 -65 -11 -3 -95 125 -295 452
-154 251 -297 474 -317 494 -21 21 -61 51 -90 66 l-53 28 -465 2 -465 2 -203
328 c-217 353 -249 392 -335 418 -68 20 -652 21 -708 1z m2175 -942 c18 -13
145 -209 330 -509 166 -268 313 -497 327 -507 l26 -20 365 73 c405 80 414 81
477 23 84 -76 71 -207 -26 -261 -25 -14 -186 -50 -478 -109 -485 -97 -491 -97
-551 -41 -19 18 -102 142 -185 277 -83 135 -160 255 -172 268 -14 15 -32 22
-57 22 -25 0 -43 -7 -57 -22 -29 -32 -305 -449 -310 -468 -4 -14 -22 -14 -188
5 -101 12 -187 23 -189 26 -3 3 116 187 264 409 235 352 270 410 270 443 0 27
-7 45 -25 62 l-24 25 -287 0 -287 0 -201 -199 c-216 -214 -241 -230 -321 -215
-104 19 -168 142 -121 232 16 30 469 483 501 501 14 7 152 10 455 8 425 -2
436 -2 464 -23z m-1389 -81 l46 -76 -20 -20 -20 -21 -70 35 -71 34 41 63 c23
34 43 62 45 62 1 0 23 -34 49 -77z m995 -398 c0 -3 -82 -128 -181 -277 l-182
-272 -84 169 -85 168 109 109 108 108 157 0 c87 0 158 -2 158 -5z m576 -747
c107 -176 173 -260 229 -296 11 -6 -99 47 -245 119 -146 72 -267 133 -269 135
-6 6 153 243 160 238 4 -2 60 -91 125 -196z"/>
<path d="M3990 4189 c-208 -35 -379 -236 -380 -446 0 -231 166 -427 393 -463
225 -35 454 114 511 335 68 259 -91 515 -353 571 -74 15 -92 16 -171 3z m203
-190 c54 -27 113 -83 140 -134 18 -33 22 -57 22 -130 0 -73 -4 -97 -22 -130
-75 -140 -255 -201 -389 -132 -173 89 -218 309 -92 452 41 46 97 81 153 96 47
13 141 1 188 -22z"/>
<path d="M1622 477 c-30 -32 -29 -87 1 -115 21 -20 34 -22 141 -22 111 0 118
1 141 25 16 15 25 36 25 55 0 19 -9 40 -25 55 -23 24 -30 25 -143 25 -111 0
-120 -1 -140 -23z"/>
</g>
</svg>
