<svg xmlns="http://www.w3.org/2000/svg" width="100%" height="1000" viewBox="0 0 1000 1000" version="1.1"><path d="M 0.496 500.500 C 0.496 775.500, 0.610 887.851, 0.750 750.168 C 0.890 612.486, 0.890 387.486, 0.750 250.168 C 0.610 112.851, 0.496 225.500, 0.496 500.500 " stroke="none" fill="white" fill-rule="evenodd"/><path d="M 428.500 238.227 L 374.500 265.344 385.500 268.747 C 391.550 270.619, 401.563 273.707, 407.750 275.609 L 419 279.069 419 290.534 L 419 302 483 302 L 547 302 547 290.538 L 547 279.076 556.250 276.236 L 565.500 273.395 565.778 287.353 C 566.035 300.213, 565.897 301.480, 564.028 303.470 C 561.876 305.761, 561.334 309.470, 563 310.500 C 563.572 310.853, 564 315.988, 564 322.492 C 564 332.700, 564.191 333.926, 565.859 334.455 C 570.365 335.885, 571 334.463, 571 322.952 C 571 316.808, 571.433 311.850, 572 311.500 C 573.881 310.337, 573.153 304.152, 571 303 C 569.138 302.004, 569 300.906, 569 287.130 L 569 272.330 580.250 268.804 L 591.500 265.279 537.254 238.140 C 507.418 223.213, 482.893 211.025, 482.754 211.055 C 482.614 211.085, 458.200 223.312, 428.500 238.227 " stroke="none" fill="#ebe097" fill-rule="evenodd"/><path d="M 341.010 326.250 C 341.027 355.615, 343.904 392.248, 348.031 415.672 C 349.114 421.817, 350 427.104, 350 427.422 C 350 427.740, 379.700 428, 416 428 L 482 428 482 369 L 482 310 411.500 310 L 341 310 341.010 326.250 " stroke="none" fill="#ebe097" fill-rule="evenodd"/><path d="M 490 368.836 L 490 427.672 553.710 428.326 C 588.751 428.686, 617.757 428.643, 618.168 428.232 C 619.452 426.948, 621.902 410.122, 622.935 395.500 C 623.478 387.800, 624.234 365.413, 624.615 345.750 L 625.306 310 601.672 310 L 578.038 310 577.547 312.250 C 577.278 313.488, 576.932 319.378, 576.778 325.340 C 576.521 335.356, 576.320 336.325, 574.139 338.090 C 571.233 340.441, 564.344 340.630, 561.223 338.443 C 559.145 336.988, 559 336.137, 559 325.378 C 559 319.048, 558.534 312.998, 557.965 311.934 C 556.973 310.081, 555.527 310, 523.465 310 L 490 310 490 368.836 " stroke="none" fill="#ebe097" fill-rule="evenodd"/><path d="M 407.332 341.851 C 395.074 346.087, 386 358.262, 386 370.473 C 386 375.357, 389.251 385.134, 391.495 386.996 C 392.691 387.988, 392.364 388.973, 389.417 393.258 C 383.641 401.653, 386.248 404.435, 394.538 398.722 L 399.412 395.363 405.779 398.682 C 412.599 402.236, 418.206 402.918, 421.305 400.568 C 423.581 398.842, 423.771 396.368, 422.033 391.100 C 420.294 385.831, 421.183 384.850, 428.191 384.304 C 436.351 383.667, 437.686 383.215, 441.631 379.751 C 450.803 371.698, 450.240 360.229, 440.170 350.006 C 430.943 340.638, 419.248 337.733, 407.332 341.851 " stroke="none" fill="#08196d" fill-rule="evenodd"/><path d="M 407.594 343.645 C 404.048 344.734, 401.127 346.724, 397.055 350.826 C 386.866 361.087, 385.336 373.071, 392.638 385.426 C 393.707 387.234, 394.102 387.066, 399.121 382.676 C 402.060 380.104, 404.790 378, 405.186 378 C 405.582 378, 406.810 375.957, 407.914 373.461 C 410.431 367.771, 416.352 364.625, 422 365.978 C 425.179 366.739, 425.293 366.881, 423.243 367.527 C 421.557 368.057, 420.820 369.272, 420.332 372.325 C 419.605 376.874, 416.156 381, 413.081 381 C 411.975 381, 410.554 381.965, 409.923 383.144 C 409.292 384.324, 407.005 387.209, 404.842 389.556 L 400.909 393.823 403.159 395.399 C 406.505 397.742, 414.545 400.184, 417.717 399.820 C 421.106 399.430, 421.808 396.479, 419.893 390.676 C 418.646 386.896, 418.702 386.653, 421.354 384.372 C 423.543 382.489, 425.262 382, 429.688 382 C 436.585 382, 441.259 379.374, 444.031 373.939 C 446.701 368.705, 446.508 363.412, 443.421 357.218 C 437.327 344.988, 422.060 339.204, 407.594 343.645 " stroke="none" fill="#08d210" fill-rule="evenodd"/><path d="M 557 345.500 C 557 347.989, 557.402 349.033, 558.250 348.750 C 558.938 348.521, 559.500 347.058, 559.500 345.500 C 559.500 343.942, 558.938 342.479, 558.250 342.250 C 557.402 341.967, 557 343.011, 557 345.500 " stroke="none" fill="#fcfa32" fill-rule="evenodd"/><path d="M 420.655 347.829 C 419.745 348.835, 419.007 350.522, 419.015 351.579 C 419.065 357.854, 427.510 359.364, 430.150 353.570 C 432.688 348, 424.810 343.237, 420.655 347.829 " stroke="none" fill="#08d210" fill-rule="evenodd"/><path d="M 541.573 346.882 C 540.657 348.364, 543.717 353.293, 545.044 352.473 C 546.443 351.608, 546.226 350.501, 544.159 347.948 C 542.850 346.332, 542.103 346.024, 541.573 346.882 " stroke="none" fill="#fcfa32" fill-rule="evenodd"/><path d="M 571.444 348.444 C 570.222 350.310, 570.018 351.418, 570.758 352.158 C 571.499 352.899, 572.333 352.421, 573.556 350.556 C 574.778 348.690, 574.982 347.582, 574.242 346.842 C 573.501 346.101, 572.667 346.579, 571.444 348.444 " stroke="none" fill="#fcfa32" fill-rule="evenodd"/><path d="M 403.750 349.080 C 401.713 350.266, 401.355 355.955, 403.200 357.800 C 403.860 358.460, 405.795 359, 407.500 359 C 411.297 359, 413 357.437, 413 353.955 C 413 349.227, 408.012 346.598, 403.750 349.080 " stroke="none" fill="white" fill-rule="evenodd"/><path d="M 422.200 349.200 C 418.680 352.720, 423.155 357.314, 427.040 354.168 C 428.934 352.635, 429.092 352.040, 428.098 350.183 C 426.815 347.785, 424.072 347.328, 422.200 349.200 " stroke="none" fill="#232cf4" fill-rule="evenodd"/><path d="M 404.384 351.442 C 403.372 354.080, 404.487 356.495, 406.876 356.835 C 410.019 357.281, 411.395 355.710, 410.608 352.573 C 410.128 350.663, 409.314 350, 407.450 350 C 406.068 350, 404.688 350.649, 404.384 351.442 " stroke="none" fill="#fcfa32" fill-rule="evenodd"/><path d="M 555.500 354.681 C 547.093 356.569, 543.021 359.650, 539.879 366.500 C 537.119 372.517, 537.492 378.559, 540.992 384.500 C 546.430 393.734, 547.768 397.323, 547.514 402 C 547.270 406.491, 548.318 409.845, 550.400 411.235 C 552.302 412.505, 564.380 412.027, 566.250 410.608 C 567.566 409.609, 568.002 407.818, 568.010 403.390 C 568.020 397.470, 568.707 395.619, 575.567 383.038 C 581.336 372.458, 575.494 359.006, 563.596 355.473 C 560.868 354.663, 558.381 354.052, 558.068 354.116 C 557.756 354.180, 556.600 354.434, 555.500 354.681 " stroke="none" fill="#08196d" fill-rule="evenodd"/><path d="M 530 359.339 C 530 361.219, 534.704 363.288, 535.617 361.811 C 536.365 360.601, 533.425 358, 531.309 358 C 530.589 358, 530 358.603, 530 359.339 " stroke="none" fill="#fcfa32" fill-rule="evenodd"/><path d="M 549.389 359.905 C 540.140 365.544, 538.534 377.014, 545.658 386.554 C 546.912 388.233, 548.633 391.271, 549.482 393.304 L 551.027 397 558 397 L 564.973 397 566.518 393.304 C 567.367 391.271, 569.128 388.209, 570.432 386.500 C 577.261 377.546, 575.574 365.369, 566.759 359.995 C 562.407 357.341, 553.667 357.296, 549.389 359.905 " stroke="none" fill="#f3ef00" fill-rule="evenodd"/><path d="M 581.538 359.348 C 580.524 360.090, 580.004 361.198, 580.383 361.811 C 581.296 363.288, 586 361.219, 586 359.339 C 586 357.620, 583.896 357.624, 581.538 359.348 " stroke="none" fill="#fcfa32" fill-rule="evenodd"/><path d="M 433.223 360.557 C 428.925 363.567, 431.198 371, 436.416 371 C 441.421 371, 443.684 364.684, 440 361 C 437.593 358.593, 436.160 358.499, 433.223 360.557 " stroke="none" fill="#232cf4" fill-rule="evenodd"/><path d="M 394 363 C 390.318 366.682, 392.592 373.024, 397.579 372.985 C 403.507 372.937, 405.384 364.881, 400.122 362.065 C 397.315 360.563, 396.279 360.721, 394 363 " stroke="none" fill="white" fill-rule="evenodd"/><path d="M 434.046 362.954 C 431.832 365.168, 432.234 367.622, 434.952 368.485 C 439.501 369.929, 442.198 364.246, 438.023 362.012 C 436.455 361.173, 435.632 361.368, 434.046 362.954 " stroke="none" fill="#601713" fill-rule="evenodd"/><path d="M 395.750 364.080 C 393.729 365.257, 393.459 368.059, 395.200 369.800 C 398.562 373.162, 403.138 369.070, 400.396 365.155 C 398.703 362.738, 398.239 362.630, 395.750 364.080 " stroke="none" fill="#fc3e32" fill-rule="evenodd"/><path d="M 415.325 368.459 C 409.512 370.988, 406.933 378.128, 411.591 378.797 C 414.779 379.255, 417.718 376.001, 418.407 371.250 C 418.746 368.913, 418.906 367.018, 418.762 367.039 C 418.618 367.061, 417.071 367.700, 415.325 368.459 " stroke="none" fill="#08196d" fill-rule="evenodd"/><path d="M 526 374.500 C 526 375.500, 527 376, 529 376 C 531 376, 532 375.500, 532 374.500 C 532 373.500, 531 373, 529 373 C 527 373, 526 373.500, 526 374.500 " stroke="none" fill="#fcfa32" fill-rule="evenodd"/><path d="M 584 374.437 C 584 375.564, 585 376, 587.583 376 C 592.102 376, 591.757 373.639, 587.173 373.187 C 584.828 372.955, 584 373.281, 584 374.437 " stroke="none" fill="#fcfa32" fill-rule="evenodd"/><path d="M 404 381.036 C 401.537 382.996, 401.529 383.047, 403.476 384.538 C 405.284 385.922, 405.602 385.857, 407.203 383.776 C 410.309 379.736, 408.056 377.809, 404 381.036 " stroke="none" fill="#08d210" fill-rule="evenodd"/><path d="M 395.849 388.731 C 390.489 394.461, 387.495 398.828, 388.344 399.678 C 389.104 400.438, 395.183 396.322, 400.420 391.502 C 404.334 387.900, 404.336 387.892, 402.348 385.903 C 400.359 383.915, 400.350 383.919, 395.849 388.731 " stroke="none" fill="#08196d" fill-rule="evenodd"/><path d="M 551 401 C 551 401.556, 553.667 402, 557 402 C 560.300 402, 563.326 402.034, 563.725 402.075 C 564.124 402.116, 564.611 401.666, 564.808 401.075 C 565.041 400.376, 562.691 400, 558.083 400 C 554.028 400, 551 400.427, 551 401 " stroke="none" fill="#abaeab" fill-rule="evenodd"/><path d="M 551.244 407.250 C 551.699 408.632, 559.019 409.463, 562.670 408.547 C 567.382 407.364, 564.836 406, 557.917 406 C 552.697 406, 550.942 406.329, 551.244 407.250 " stroke="none" fill="#abaeab" fill-rule="evenodd"/><path d="M 352.406 437.743 C 352.707 438.709, 354.316 444.108, 355.983 449.741 C 359.810 462.675, 363.649 472.345, 369.908 484.816 C 374.115 493.201, 383.883 508.731, 387.436 512.685 C 388.021 513.336, 391.200 516.947, 394.500 520.710 C 402.216 529.507, 413.768 539.802, 424.782 547.699 C 438.291 557.383, 462.900 569.362, 479.757 574.457 L 482.014 575.139 481.757 505.820 L 481.500 436.500 416.680 436.243 C 355.237 435.999, 351.889 436.077, 352.406 437.743 " stroke="none" fill="#ebe097" fill-rule="evenodd"/><path d="M 490 505.250 C 490 546.116, 490.371 574, 490.914 574 C 492.568 574, 509.325 567.302, 518.500 562.973 C 556.483 545.054, 590.465 509.674, 605.400 472.500 C 611.112 458.282, 617.532 438.199, 616.648 437.315 C 616.499 437.166, 587.942 436.922, 553.189 436.772 L 490 436.500 490 505.250 " stroke="none" fill="#ebe097" fill-rule="evenodd"/><path d="M 405.162 458.305 C 404.293 459.352, 404.029 464.656, 404.226 477.120 L 404.500 494.476 411.445 495.734 C 415.393 496.449, 420.022 498.072, 422.173 499.496 C 424.254 500.873, 426.079 502.001, 426.229 502.001 C 426.975 502.005, 425.737 466.377, 424.939 464.886 C 423.810 462.776, 414.826 458.339, 409.936 457.476 C 407.419 457.032, 406.016 457.275, 405.162 458.305 " stroke="none" fill="#043835" fill-rule="evenodd"/><path d="M 441.196 458.897 C 438.279 459.905, 434.566 461.999, 432.946 463.552 L 430 466.374 430 484.201 L 430 502.028 433.924 499.432 C 436.425 497.777, 440.412 496.438, 444.924 495.740 L 452 494.645 452 477.022 C 452 455.243, 451.962 455.179, 441.196 458.897 " stroke="none" fill="#043835" fill-rule="evenodd"/><path d="M 555.500 458.889 C 553.850 459.924, 544.798 468.585, 535.385 478.136 C 518.413 495.355, 518.252 495.560, 516.135 502.655 C 512.798 513.841, 512.854 513.899, 523.616 510.361 L 531.500 507.769 549.317 490.134 C 559.117 480.435, 567.778 471.288, 568.564 469.806 C 570.379 466.386, 569.283 463.257, 565.009 459.661 C 561.263 456.509, 559.520 456.367, 555.500 458.889 " stroke="none" fill="white" fill-rule="evenodd"/><path d="M 556.584 461.864 C 556.291 462.339, 557.840 464.608, 560.027 466.907 L 564.003 471.087 565.167 468.534 C 566.174 466.323, 566.016 465.646, 563.991 463.490 C 561.697 461.048, 557.639 460.157, 556.584 461.864 " stroke="none" fill="#f4233c" fill-rule="evenodd"/><path d="M 397.445 466.282 C 397.175 466.987, 397.076 475.875, 397.227 486.032 L 397.500 504.500 400.500 504.295 C 402.150 504.183, 407.717 503.991, 412.870 503.870 C 420.958 503.680, 421.991 503.467, 420.417 502.315 C 418.071 500.600, 412.342 499.013, 408.473 499.006 C 406.807 499.003, 404.445 498.299, 403.223 497.443 C 401.089 495.949, 401 495.268, 401 480.443 C 401 467.242, 400.778 465, 399.469 465 C 398.626 465, 397.716 465.577, 397.445 466.282 " stroke="none" fill="#3d8db4" fill-rule="evenodd"/><path d="M 455.688 465.646 C 455.309 466.024, 455 472.983, 455 481.110 C 455 495.246, 454.904 495.954, 452.777 497.443 C 451.555 498.299, 449.193 499.003, 447.527 499.006 C 443.658 499.013, 437.929 500.600, 435.583 502.315 C 434.009 503.467, 435.042 503.680, 443.130 503.870 C 448.283 503.991, 453.850 504.183, 455.500 504.295 L 458.500 504.500 458.500 485.083 C 458.500 466.738, 458.006 463.327, 455.688 465.646 " stroke="none" fill="#380410" fill-rule="evenodd"/><path d="M 538.737 479.763 C 531.181 487.333, 525 493.813, 525 494.163 C 525 494.513, 526.651 496.451, 528.668 498.468 L 532.337 502.137 546.168 488.332 C 553.776 480.739, 560 473.773, 560 472.852 C 560 471.299, 554.710 466, 553.160 466 C 552.782 466, 546.292 472.193, 538.737 479.763 " stroke="none" fill="#24898c" fill-rule="evenodd"/><path d="M 519.680 502.729 C 518.824 505.329, 518.266 507.599, 518.440 507.774 C 518.982 508.315, 528.007 505.798, 528.524 504.962 C 529.194 503.877, 524.134 498, 522.530 498 C 521.819 498, 520.537 500.128, 519.680 502.729 " stroke="none" fill="#3d2207" fill-rule="evenodd"/><path d="M 348.407 520.513 C 346.724 527.221, 350.734 536.638, 357.765 542.487 C 362.343 546.296, 364.005 545.305, 363.978 538.781 C 363.950 532.023, 361.406 526.486, 356.153 521.750 C 351.288 517.363, 349.279 517.042, 348.407 520.513 " stroke="none" fill="#ebe097" fill-rule="evenodd"/><path d="M 611.244 522.681 C 604.696 529.256, 601.986 538.863, 605.372 543.494 C 606.685 545.289, 606.929 545.224, 611.019 541.985 C 616.619 537.549, 620.228 529.874, 619.806 523.296 C 619.385 516.729, 617.319 516.580, 611.244 522.681 " stroke="none" fill="#ebe097" fill-rule="evenodd"/><path d="M 377.093 536.388 C 376.460 537.151, 375.413 540.297, 374.766 543.378 C 373.835 547.817, 373.861 549.762, 374.888 552.740 C 377.440 560.136, 378.513 562, 380.218 562 C 385.402 562, 386.821 544.771, 382.175 538.246 C 379.613 534.648, 378.788 534.346, 377.093 536.388 " stroke="none" fill="#ebe097" fill-rule="evenodd"/><path d="M 587.293 536.250 C 586.769 536.938, 585.534 539.260, 584.547 541.412 C 582.329 546.247, 582.858 556.608, 585.530 560.686 L 587.291 563.373 589.658 560.437 C 592.783 556.559, 594.341 550.561, 593.679 544.953 C 592.724 536.859, 589.831 532.917, 587.293 536.250 " stroke="none" fill="#ebe097" fill-rule="evenodd"/><path d="M 353.074 551.818 C 349.279 552.971, 349.468 554.804, 353.809 558.933 C 358.299 563.205, 365.303 566.008, 371.428 565.985 C 377.837 565.961, 378.838 564.785, 375.664 561.013 C 374.199 559.271, 373 557.462, 373 556.991 C 373 556.521, 371.689 555.203, 370.087 554.062 C 366.928 551.812, 357.282 550.540, 353.074 551.818 " stroke="none" fill="#ebe097" fill-rule="evenodd"/><path d="M 604.500 551.672 C 599.268 552.823, 596.822 554.569, 593.990 559.170 C 592.318 561.888, 591.213 564.536, 591.534 565.055 C 592.664 566.883, 601.833 566.050, 607.221 563.629 C 613.134 560.974, 618.543 555.857, 617.716 553.702 C 616.883 551.533, 609.963 550.470, 604.500 551.672 " stroke="none" fill="#ebe097" fill-rule="evenodd"/><path d="M 396.869 556.246 C 396.207 557.481, 395.676 560.968, 395.686 563.996 C 395.710 570.627, 398.586 577.238, 403.535 582.034 C 408.037 586.398, 409.310 585.205, 409.822 576.145 C 410.253 568.525, 408.564 563.990, 402.890 557.528 C 399.261 553.394, 398.483 553.229, 396.869 556.246 " stroke="none" fill="#ebe097" fill-rule="evenodd"/><path d="M 565.308 558.250 C 559.732 564.126, 557.272 571.729, 558.532 579.189 C 559.497 584.899, 561.636 585.168, 566.098 580.139 C 572.022 573.465, 574.271 564.943, 571.902 558.149 C 570.513 554.165, 569.165 554.185, 565.308 558.250 " stroke="none" fill="#ebe097" fill-rule="evenodd"/><path d="M 418.985 571.518 C 417.156 573.722, 418.378 581.838, 421.452 587.905 C 425.467 595.828, 438.861 605.379, 441.091 601.910 C 443.307 598.460, 438.929 584.540, 433.849 578.886 C 431.586 576.367, 422.326 570, 420.927 570 C 420.552 570, 419.678 570.683, 418.985 571.518 " stroke="none" fill="#ebe097" fill-rule="evenodd"/><path d="M 541.319 574.065 C 534.499 578.041, 529.405 585.594, 528.151 593.589 C 526.793 602.253, 527.422 603.104, 533.355 600.625 C 538.216 598.594, 543.888 593.218, 546.062 588.581 C 549.604 581.027, 550.504 570.966, 547.633 571.022 C 547.010 571.034, 544.168 572.403, 541.319 574.065 " stroke="none" fill="#ebe097" fill-rule="evenodd"/><path d="M 375.750 579.160 C 373.137 580.312, 371 581.695, 371 582.234 C 371 583.703, 375.852 587.281, 380.439 589.194 C 385.881 591.464, 397.593 591.549, 402.001 589.350 L 405.310 587.699 399.743 582.350 L 394.176 577 387.338 577.033 C 382.633 577.055, 379.018 577.719, 375.750 579.160 " stroke="none" fill="#ebe097" fill-rule="evenodd"/><path d="M 574 577.943 C 572.080 579.073, 564 586.751, 564 587.447 C 564 588.858, 571.897 591, 577.102 591 C 585.250 591, 597 585.943, 597 582.435 C 597 581.781, 594.779 580.291, 592.065 579.123 C 586.923 576.911, 576.871 576.255, 574 577.943 " stroke="none" fill="#ebe097" fill-rule="evenodd"/><path d="M 447.365 580.492 C 446.261 583.368, 447.958 592.984, 450.430 597.861 C 453.498 603.915, 460.098 610.509, 466.171 613.587 C 473.215 617.156, 475 616.872, 475 612.182 C 475 607.185, 472.419 598.623, 469.534 594.054 C 465.623 587.858, 457.609 581.837, 450.245 579.559 C 448.633 579.061, 447.812 579.327, 447.365 580.492 " stroke="none" fill="#ebe097" fill-rule="evenodd"/><path d="M 512.500 582.057 C 501.893 587.312, 494.603 597.863, 493.366 609.750 C 492.746 615.701, 492.819 616, 494.891 616 C 498.044 616, 506.443 611.498, 511.044 607.342 C 513.228 605.368, 516.385 600.885, 518.058 597.379 C 520.549 592.158, 521.046 589.978, 520.800 585.331 C 520.635 582.211, 520.050 579.529, 519.500 579.371 C 518.950 579.214, 515.800 580.422, 512.500 582.057 " stroke="none" fill="#ebe097" fill-rule="evenodd"/><path d="M 417.427 598.994 C 414.636 599.403, 410.794 600.479, 408.888 601.383 C 404.383 603.521, 398 608.800, 398 610.389 C 398 611.072, 399.861 612.678, 402.137 613.957 C 408.176 617.351, 420.494 617.434, 427.500 614.126 C 437.596 609.361, 440.540 605.854, 435.508 604.591 C 434.137 604.247, 430.899 602.623, 428.312 600.983 C 425.725 599.342, 423.359 598.056, 423.054 598.125 C 422.749 598.193, 420.217 598.585, 417.427 598.994 " stroke="none" fill="#ebe097" fill-rule="evenodd"/><path d="M 537.250 602.591 C 533.813 604.565, 531 606.529, 531 606.957 C 531 608.279, 538.248 612.581, 543.428 614.333 C 546.139 615.250, 550.734 616, 553.641 616 C 559.784 616, 570 612.524, 570 610.434 C 570 608.997, 563.829 604.038, 558.722 601.370 C 557.194 600.572, 553.144 599.713, 549.722 599.461 C 543.995 599.040, 543.002 599.289, 537.250 602.591 " stroke="none" fill="#ebe097" fill-rule="evenodd"/><path d="M 443.416 613.956 C 437.037 616.226, 431.470 619.765, 427.138 624.305 C 423.343 628.280, 423.582 629.329, 428.818 631.689 C 433.650 633.867, 450.972 634.118, 456 632.084 C 460.895 630.103, 472.178 622.034, 471.769 620.806 C 471.582 620.247, 469.737 619.208, 467.668 618.497 C 465.598 617.785, 462.136 616.032, 459.974 614.602 C 455.312 611.516, 450.768 611.339, 443.416 613.956 " stroke="none" fill="#ebe097" fill-rule="evenodd"/><path d="M 510.473 613.379 C 506.622 616.071, 500.919 619, 499.529 619 C 493.918 619, 500.058 625.928, 509.932 630.741 C 514.884 633.153, 516.607 633.449, 525.500 633.409 C 535.355 633.365, 541.790 631.767, 543.544 628.929 C 544.383 627.571, 538.851 621.648, 533.606 618.288 C 528.717 615.156, 519.663 612, 515.566 612 C 513.849 612, 511.557 612.621, 510.473 613.379 " stroke="none" fill="#ebe097" fill-rule="evenodd"/></svg>