<?xml version="1.0" standalone="no"?>
<!DOCTYPE svg PUBLIC "-//W3C//DTD SVG 20010904//EN"
 "http://www.w3.org/TR/2001/REC-SVG-20010904/DTD/svg10.dtd">
<svg version="1.0" xmlns="http://www.w3.org/2000/svg"
 width="1000.000000pt" height="1000.000000pt" viewBox="0 0 1000.000000 1000.000000"
 preserveAspectRatio="xMidYMid meet">

<g transform="translate(0.000000,1000.000000) scale(0.100000,-0.100000)"
fill="#000000" stroke="none">
<path d="M4276 7613 l-529 -266 219 -67 219 -68 3 -116 3 -116 639 0 639 0 3
116 3 117 93 27 92 28 0 -144 c0 -133 -2 -146 -21 -165 -15 -15 -19 -27 -13
-42 4 -12 9 -75 11 -139 l4 -118 34 0 34 0 4 113 c3 61 8 127 12 145 6 28 4
36 -14 48 -20 14 -21 24 -21 164 l0 149 38 11 c20 5 71 21 112 34 l74 24 -533
266 c-293 146 -542 266 -554 265 -12 0 -260 -120 -551 -266z"/>
<path d="M3410 6748 c0 -183 15 -450 35 -643 14 -136 50 -360 61 -377 3 -4
300 -8 660 -8 l654 0 0 590 0 590 -705 0 -705 0 0 -152z m874 -168 c69 -26
123 -69 161 -128 26 -39 30 -56 30 -112 0 -111 -55 -169 -173 -181 -36 -4 -71
-13 -79 -22 -14 -14 -14 -19 0 -56 41 -102 -57 -135 -182 -62 -44 26 -51 28
-62 15 -19 -23 -89 -56 -105 -50 -22 9 -16 38 19 86 l33 45 -23 33 c-123 182
36 449 269 451 34 1 79 -7 112 -19z"/>
<path d="M4087 6566 c-120 -32 -218 -176 -204 -298 5 -37 36 -118 53 -137 2
-2 23 14 47 36 24 23 53 46 64 52 12 6 24 23 28 38 14 56 77 95 144 89 31 -3
38 -22 12 -29 -12 -3 -22 -16 -26 -33 -10 -51 -30 -79 -63 -90 -18 -5 -40 -21
-49 -35 -9 -13 -31 -40 -50 -60 l-34 -36 26 -17 c34 -22 101 -46 130 -46 39 0
50 24 36 79 -6 26 -9 54 -6 63 9 23 50 38 104 38 53 0 99 25 135 73 32 43 28
128 -7 188 -65 110 -204 161 -340 125z m207 -48 c23 -32 20 -54 -11 -77 -57
-46 -125 27 -76 81 23 25 68 23 87 -4z m-183 -8 c23 -13 26 -72 4 -90 -24 -20
-67 -15 -87 10 -23 29 -23 45 2 70 22 22 51 26 81 10z m287 -116 c42 -29 22
-104 -28 -104 -36 0 -60 23 -60 60 0 28 30 60 55 60 6 0 21 -7 33 -16z m-379
-31 c33 -41 7 -93 -45 -93 -52 0 -75 74 -32 104 32 23 54 20 77 -11z"/>
<path d="M4220 6505 c-6 -8 -9 -23 -5 -35 8 -25 51 -27 64 -2 20 38 -31 71
-59 37z"/>
<path d="M4044 6486 c-10 -27 1 -51 25 -54 31 -5 45 11 37 42 -5 19 -13 26
-32 26 -13 0 -27 -6 -30 -14z"/>
<path d="M4337 6374 c-14 -15 -7 -53 12 -59 31 -10 52 5 49 34 -2 19 -9 27
-28 29 -14 2 -29 0 -33 -4z"/>
<path d="M3955 6356 c-20 -14 -17 -44 6 -59 24 -15 49 -1 49 27 0 32 -30 50
-55 32z"/>
<path d="M4119 6291 c-34 -34 -38 -67 -9 -76 29 -9 70 20 70 49 0 14 3 31 6
40 11 28 -35 19 -67 -13z"/>
<path d="M4042 6193 c-21 -15 -22 -17 -6 -34 16 -18 17 -18 36 6 11 14 16 29
13 35 -8 13 -16 12 -43 -7z"/>
<path d="M3963 6117 c-49 -52 -87 -106 -79 -114 8 -8 74 39 119 85 36 37 37
39 19 55 -17 16 -20 14 -59 -26z"/>
<path d="M4900 6310 l0 -590 644 0 644 0 12 69 c6 38 15 104 20 147 12 106 35
926 27 947 -6 15 -29 17 -230 17 -160 0 -226 -3 -235 -12 -8 -8 -12 -49 -12
-120 0 -118 -11 -155 -47 -164 -36 -9 -114 2 -124 17 -5 8 -9 62 -9 121 0 60
-5 118 -12 133 l-11 25 -334 0 -333 0 0 -590z m698 232 c2 -23 -1 -32 -12 -32
-21 0 -29 17 -22 46 9 34 30 25 34 -14z m-148 -27 c10 -18 11 -28 3 -36 -13
-13 -49 34 -38 51 10 16 21 12 35 -15z m300 8 c-1 -29 -28 -59 -42 -45 -8 8
-7 17 6 36 19 30 36 34 36 9z m-80 -88 c39 -20 83 -69 97 -107 26 -73 10 -139
-58 -246 -16 -24 -21 -50 -22 -103 -2 -89 -14 -99 -109 -99 -93 0 -108 15
-108 108 0 64 -3 73 -42 132 -41 60 -43 68 -43 134 0 61 4 77 27 111 58 85
170 115 258 70z m-316 -37 c5 -9 7 -20 3 -24 -10 -11 -57 17 -57 33 0 20 40
13 54 -9z m506 9 c0 -20 -40 -41 -54 -27 -8 8 -6 15 8 26 24 17 46 18 46 1z
m-540 -152 c0 -10 -11 -15 -35 -15 -33 0 -43 8 -28 23 13 14 63 7 63 -8z m588
-2 c2 -9 -8 -13 -32 -13 -26 0 -36 4 -36 16 0 19 61 16 68 -3z"/>
<path d="M5492 6400 c-88 -54 -105 -175 -36 -265 13 -17 30 -48 39 -68 l16
-38 69 2 c60 2 70 5 76 22 3 11 24 47 45 80 21 32 41 75 45 94 13 70 -35 158
-100 183 -45 17 -117 12 -154 -10z"/>
<path d="M5510 5990 c0 -6 30 -10 70 -10 40 0 70 4 70 10 0 6 -30 10 -70 10
-40 0 -70 -4 -70 -10z"/>
<path d="M5512 5928 c5 -14 78 -23 115 -13 47 11 21 25 -48 25 -52 0 -70 -3
-67 -12z"/>
<path d="M3530 5621 c0 -28 64 -232 101 -319 199 -481 549 -814 1056 -1006 67
-25 125 -46 128 -46 3 0 5 310 5 688 l0 689 -317 6 c-174 4 -464 7 -645 7
-314 0 -328 -1 -328 -19z m658 -223 c74 -35 80 -54 80 -249 0 -93 -2 -169 -5
-169 -2 0 -20 11 -41 24 -20 14 -53 27 -72 30 -19 3 -47 8 -62 10 -15 3 -32 7
-38 11 -15 10 -13 348 3 364 16 16 78 7 135 -21z m330 -160 c1 -104 -1 -188
-5 -189 -72 -4 -151 -29 -213 -66 -3 -2 -4 78 -2 177 l3 179 29 28 c35 33 112
63 155 60 l30 -2 3 -187z m-508 -43 l0 -154 30 -16 c16 -8 44 -15 62 -15 18 0
56 -11 83 -24 l50 -23 -100 -2 c-55 -1 -113 -3 -130 -4 l-30 -2 -3 185 c-1
101 0 190 2 197 3 7 12 13 21 13 13 0 15 -22 15 -155z m575 -45 l0 -195 -30 2
c-16 1 -72 3 -122 4 -51 1 -93 3 -93 5 0 11 71 37 122 44 33 5 66 14 74 21 11
9 14 44 14 166 0 142 1 154 18 151 15 -3 17 -21 17 -198z"/>
<path d="M4900 4945 c0 -377 1 -685 3 -685 24 0 184 66 302 125 197 98 312
181 470 340 186 185 302 359 393 590 50 127 92 259 92 291 l0 24 -630 0 -630
0 0 -685z m751 462 c30 -25 49 -58 49 -83 0 -9 -86 -104 -192 -210 l-192 -194
-83 -25 c-46 -14 -87 -23 -92 -21 -5 3 3 44 17 91 l25 85 192 190 c209 207
222 214 276 167z"/>
<path d="M5572 5381 c-10 -6 -2 -18 28 -49 l41 -41 11 25 c10 21 8 28 -12 49
-24 26 -45 31 -68 16z"/>
<path d="M5387 5202 c-75 -75 -137 -140 -137 -144 0 -3 17 -23 37 -43 l36 -36
139 138 c76 76 138 145 138 154 0 16 -53 69 -68 69 -4 0 -69 -62 -145 -138z"/>
<path d="M5197 4973 c-7 -27 -13 -49 -11 -51 3 -5 88 20 98 29 9 8 -46 69 -63
69 -5 0 -16 -21 -24 -47z"/>
<path d="M3490 4761 c0 -77 19 -118 75 -169 58 -52 75 -47 75 22 -1 67 -27
124 -80 169 -61 52 -70 49 -70 -22z"/>
<path d="M6117 4778 c-51 -50 -83 -129 -73 -183 10 -49 29 -49 79 1 60 59 92
153 71 208 -10 26 -31 19 -77 -26z"/>
<path d="M3773 4638 c-13 -18 -33 -90 -33 -122 0 -35 49 -136 66 -136 45 0 60
156 21 224 -25 44 -39 53 -54 34z"/>
<path d="M5859 4613 c-40 -66 -28 -233 17 -233 7 0 23 17 36 38 38 61 26 215
-18 229 -6 2 -22 -13 -35 -34z"/>
<path d="M3536 4482 c-16 -4 -31 -13 -34 -20 -5 -17 56 -74 105 -97 49 -24
138 -32 158 -15 14 12 13 16 -8 39 -13 14 -27 34 -30 43 -13 37 -123 66 -191
50z"/>
<path d="M6040 4481 c-36 -7 -80 -31 -80 -42 0 -3 -11 -23 -25 -43 -14 -21
-23 -42 -20 -47 9 -14 87 -11 137 7 74 25 150 99 121 117 -17 10 -100 15 -133
8z"/>
<path d="M3966 4434 c-10 -26 -7 -114 6 -157 7 -23 32 -61 55 -86 52 -54 64
-48 71 33 6 69 -18 141 -62 189 -36 40 -60 47 -70 21z"/>
<path d="M5653 4418 c-58 -61 -82 -149 -62 -222 12 -45 29 -46 68 -1 55 63 79
148 61 215 -6 22 -16 40 -23 40 -7 0 -27 -15 -44 -32z"/>
<path d="M4185 4269 c-8 -24 11 -111 35 -159 19 -37 73 -85 134 -119 56 -32
59 -29 54 47 -8 99 -65 189 -150 233 -48 24 -65 24 -73 -2z"/>
<path d="M5430 4269 c-85 -51 -131 -116 -148 -209 -15 -82 -8 -91 53 -66 55
23 119 96 139 159 18 57 18 128 1 134 -5 1 -26 -7 -45 -18z"/>
<path d="M3764 4211 c-73 -33 -68 -47 33 -96 38 -18 68 -25 114 -25 66 0 129
17 129 35 0 13 -68 79 -97 94 -34 17 -133 13 -179 -8z"/>
<path d="M5696 4183 c-30 -27 -53 -52 -52 -57 4 -17 69 -34 128 -35 80 -1 211
60 193 89 -16 25 -90 50 -152 50 -61 0 -65 -2 -117 -47z"/>
<path d="M4473 4194 c-20 -53 31 -195 93 -258 46 -46 130 -96 163 -96 23 0 24
1 17 62 -12 122 -82 224 -189 276 -74 37 -76 37 -84 16z"/>
<path d="M5142 4185 c-77 -36 -111 -64 -152 -127 -25 -39 -42 -79 -50 -123
-20 -106 -6 -115 93 -63 101 54 177 171 177 274 0 29 -4 55 -8 58 -5 3 -31 -6
-60 -19z"/>
<path d="M4118 3996 c-47 -17 -132 -78 -136 -98 -2 -10 13 -23 42 -37 57 -26
184 -29 241 -5 47 19 115 64 115 75 0 5 -16 15 -36 24 -19 8 -47 24 -61 35
-30 24 -107 27 -165 6z"/>
<path d="M5398 3985 c-21 -14 -49 -30 -63 -35 -33 -13 -32 -20 9 -48 54 -37
132 -62 190 -62 60 0 166 35 166 56 0 19 -88 79 -143 98 -69 23 -116 20 -159
-9z"/>
<path d="M4460 3866 c-82 -23 -186 -90 -211 -137 -9 -17 -5 -22 38 -42 69 -31
217 -31 286 1 55 25 147 89 147 103 0 5 -12 12 -27 15 -32 9 -58 22 -100 52
-34 24 -66 26 -133 8z"/>
<path d="M5070 3844 c-30 -19 -62 -34 -71 -34 -60 0 -5 -64 98 -115 52 -26 68
-29 158 -29 84 0 107 3 143 22 23 12 42 26 42 31 0 12 -72 75 -117 104 -47 29
-132 57 -170 56 -15 -1 -53 -16 -83 -35z"/>
<path d="M1974 3119 c-49 -14 -79 -54 -79 -105 0 -53 16 -67 124 -105 98 -36
114 -60 64 -99 -36 -28 -79 -21 -113 19 -19 22 -34 30 -58 29 -73 -2 -14 -89
74 -109 128 -29 233 48 194 141 -15 37 -42 54 -116 75 -65 19 -94 39 -94 65 0
22 17 36 52 45 23 6 33 1 60 -26 21 -21 44 -33 65 -35 40 -3 42 10 10 57 -34
51 -107 70 -183 48z"/>
<path d="M6567 3118 c-103 -27 -157 -165 -107 -271 35 -74 128 -117 219 -102
87 14 161 96 161 175 0 153 -119 239 -273 198z m119 -53 c98 -41 91 -231 -10
-265 -75 -24 -138 24 -152 116 -9 59 24 130 68 149 42 18 51 18 94 0z"/>
<path d="M7746 3120 c-64 -20 -99 -84 -76 -140 13 -31 70 -63 132 -75 97 -18
103 -106 9 -109 -37 -1 -47 4 -70 32 -20 24 -36 32 -59 32 -40 0 -43 -26 -7
-68 71 -85 262 -56 281 43 11 58 -28 105 -106 126 -90 25 -120 51 -100 89 22
41 97 31 119 -16 8 -19 18 -24 47 -24 34 0 36 1 29 28 -17 71 -108 109 -199
82z"/>
<path d="M2222 3093 c3 -27 5 -28 71 -31 l67 -3 0 -154 0 -155 40 0 40 0 0
155 0 154 68 3 c65 3 67 4 70 31 l3 27 -181 0 -181 0 3 -27z"/>
<path d="M2750 2935 l0 -185 40 0 40 0 0 143 0 142 48 -140 47 -140 45 0 45 0
33 95 c18 52 39 118 47 145 13 49 14 46 14 -97 l1 -148 40 0 40 0 0 185 0 185
-63 0 -63 0 -43 -145 c-24 -80 -47 -145 -50 -145 -3 0 -26 65 -50 145 l-45
145 -63 0 -63 0 0 -185z"/>
<path d="M3338 2998 c-26 -68 -58 -151 -72 -185 l-25 -63 43 0 43 0 18 55 17
55 72 0 72 0 18 -55 c17 -54 17 -55 57 -55 21 0 39 3 39 7 0 4 -30 87 -67 185
l-68 178 -50 0 -50 0 -47 -122z m116 5 c8 -27 17 -56 21 -65 6 -16 1 -18 -39
-18 -25 0 -46 4 -46 9 0 7 14 52 35 109 8 21 14 14 29 -35z"/>
<path d="M3680 2935 l0 -185 40 0 40 0 0 75 0 75 48 0 c63 0 80 -14 92 -78 13
-70 15 -72 59 -72 l38 0 -18 73 c-11 44 -26 78 -39 89 -23 19 -26 28 -7 28 26
0 57 45 57 83 0 72 -55 97 -212 97 l-98 0 0 -185z m214 112 c26 -19 18 -68
-14 -84 -14 -7 -46 -13 -72 -13 l-48 0 0 55 0 55 58 0 c32 0 66 -6 76 -13z"/>
<path d="M4022 3093 c3 -27 5 -28 71 -31 l67 -3 0 -154 0 -155 40 0 40 0 0
155 0 154 68 3 c65 3 67 4 70 31 l3 27 -181 0 -181 0 3 -27z"/>
<path d="M4430 2935 l0 -185 40 0 40 0 0 185 0 185 -40 0 -40 0 0 -185z"/>
<path d="M4610 2935 l0 -185 41 0 41 0 -4 135 c-2 74 -1 135 2 135 5 0 37 -51
143 -225 27 -45 28 -45 82 -45 l55 0 0 185 0 185 -40 0 -40 0 0 -142 0 -142
-87 142 -87 142 -53 0 -53 0 0 -185z"/>
<path d="M5180 2934 l0 -186 113 4 c90 3 120 8 153 26 69 36 102 109 88 198
-15 101 -93 144 -261 144 l-93 0 0 -186z m227 106 c42 -25 58 -80 42 -145 -15
-59 -44 -78 -126 -85 l-63 -5 0 127 0 128 58 0 c39 0 67 -6 89 -20z"/>
<path d="M5610 2935 l0 -185 146 0 145 0 -3 28 -3 27 -103 0 -102 0 0 53 0 52
96 0 95 0 -3 28 -3 27 -93 0 -92 0 0 47 0 47 98 3 97 3 3 28 3 27 -140 0 -141
0 0 -185z"/>
<path d="M6090 2935 l0 -185 40 0 40 0 0 69 0 68 70 6 c85 7 118 22 143 65 37
63 -4 143 -81 156 -20 3 -76 6 -124 6 l-88 0 0 -185z m214 103 c21 -30 20 -44
-4 -68 -15 -15 -33 -20 -75 -20 l-55 0 0 55 0 55 59 0 c51 0 62 -3 75 -22z"/>
<path d="M6920 2935 l0 -185 40 0 40 0 0 75 0 75 48 0 c27 0 56 -6 65 -12 9
-7 22 -40 29 -73 l13 -60 41 -3 41 -3 -18 73 c-11 46 -26 79 -39 90 -21 17
-21 17 -1 27 37 20 51 42 51 82 0 30 -6 45 -26 62 -34 29 -60 34 -181 36
l-103 1 0 -185z m214 112 c26 -19 18 -68 -14 -84 -14 -7 -46 -13 -72 -13 l-48
0 0 55 0 55 58 0 c32 0 66 -6 76 -13z"/>
<path d="M7300 2935 l0 -185 146 0 145 0 -3 28 -3 27 -103 0 -102 0 0 53 0 52
96 0 95 0 -3 28 -3 27 -93 0 -92 0 0 47 0 47 98 3 97 3 3 28 3 27 -140 0 -141
0 0 -185z"/>
<path d="M3803 2589 c-17 -5 -43 -23 -57 -40 -57 -68 -17 -136 98 -169 75 -21
81 -25 90 -56 10 -34 -16 -59 -64 -59 -36 0 -47 6 -70 34 -22 25 -34 32 -56
29 -69 -8 -16 -89 71 -109 127 -28 233 48 195 141 -15 36 -42 54 -113 75 -31
9 -66 24 -79 34 -19 16 -21 22 -11 44 7 14 21 28 33 32 31 10 79 -13 86 -41 5
-20 12 -24 46 -24 39 0 40 1 33 28 -18 72 -107 108 -202 81z"/>
<path d="M4192 2586 c-76 -27 -117 -93 -116 -188 0 -117 63 -181 179 -182 100
-2 175 47 175 113 0 17 -6 21 -36 21 -30 0 -37 -4 -45 -29 -13 -36 -69 -66
-107 -56 -68 17 -107 113 -81 196 19 58 69 93 119 84 41 -8 59 -21 71 -52 7
-19 16 -23 47 -23 36 0 39 2 35 24 -16 79 -143 128 -241 92z"/>
<path d="M5065 2591 c-85 -22 -129 -88 -129 -193 0 -75 22 -117 82 -159 49
-33 159 -34 217 -1 64 37 89 81 89 160 1 82 -27 139 -84 171 -41 23 -129 34
-175 22z m108 -55 c48 -19 70 -60 71 -126 0 -70 -19 -110 -66 -133 -71 -35
-138 1 -158 82 -19 82 6 152 65 177 38 17 49 17 88 0z"/>
<path d="M5534 2591 c-92 -24 -139 -89 -138 -193 0 -79 25 -124 89 -160 58
-33 168 -32 217 1 60 42 82 84 82 159 0 80 -26 139 -77 171 -37 23 -126 34
-173 22z m99 -55 c61 -25 88 -104 65 -185 -17 -55 -55 -86 -108 -86 -53 0 -91
31 -108 86 -23 80 4 159 63 185 38 17 49 17 88 0z"/>
<path d="M4510 2405 l0 -185 40 0 40 0 0 74 c0 41 4 76 10 78 5 2 48 2 95 0
l85 -3 0 -75 0 -74 40 0 40 0 0 185 0 185 -40 0 -40 0 0 -80 0 -80 -95 0 -95
0 0 80 0 80 -40 0 -40 0 0 -185z"/>
<path d="M5860 2405 l0 -185 145 0 145 0 0 30 0 30 -105 0 -105 0 0 155 0 155
-40 0 -40 0 0 -185z"/>
</g>
</svg>
